<svg xmlns="http://www.w3.org/2000/svg" data-name="Layer 1" width="991.13988" height="770.17774" viewBox="0 0 991.13988 770.17774" xmlns:xlink="http://www.w3.org/1999/xlink">
  <title>doctors</title>
  <path d="M394.01076,446.99387c-8.47406,122.45-179.70277,122.45-188.176,0C214.31073,324.54387,385.53644,324.54387,394.01076,446.99387Z" transform="translate(-104.43006 -64.91113)" fill="#f2f2f2"/>
  <path d="M994.01076,695.99387c-8.47406,122.45-179.70277,122.45-188.176,0C814.31073,573.54387,985.53644,573.54387,994.01076,695.99387Z" transform="translate(-104.43006 -64.91113)" fill="#f2f2f2"/>
  <path d="M903.3779,570.31946c0,41.80115,26.21582,75.61673,58.62223,75.61673" transform="translate(-104.43006 -64.91113)" fill="#3f3d56"/>
  <path d="M961.99985,645.93619c0-42.27348,29.25341-76.47993,65.38677-76.47993" transform="translate(-104.43006 -64.91113)" fill="#4285f4"/>
  <path d="M924.60417,573.5621c0,39.69451,16.71312,71.80111,37.39568,71.80111" transform="translate(-104.43006 -64.91113)" fill="#4285f4"/>
  <path d="M961.99985,645.93619c0-54.0026,33.83848-97.73454,75.61674-97.73454" transform="translate(-104.43006 -64.91113)" fill="#3f3d56"/>
  <path d="M949.8325,646.59949s8.31272-.25614,10.81259-2.04139,12.79069-3.92872,13.4144-1.05656,12.49695,14.2386,3.11326,14.30685-21.80117-1.46177-24.29652-2.98534S949.8325,646.59949,949.8325,646.59949Z" transform="translate(-104.43006 -64.91113)" fill="#a8a8a8"/>
  <path d="M977.37466,656.92247c-9.38369.07825-21.80117-1.46177-24.29652-2.98534-1.90616-1.16048-2.66695-5.32115-2.92182-7.24149-.17743.00773-.28.01091-.28.01091s.53129,6.69892,3.02671,8.22248,14.91283,3.06359,24.29652,2.98534c2.70726-.01934,3.39069-.91724,3.34607-2.24547C980.07468,656.39798,979.02513,656.8786,977.22994,656.89282Z" transform="translate(-104.43006 -64.91113)" opacity="0.2"/>
</svg>
